# xmcd CD database file
#
# Track frame offsets:
#	150
#	14572
#	33141
#	54765
#	66171
#	79324
#	93056
#	104251
#	117631
#	129921
#	142868
#	158417
#	169412
#	189393
#	203924
#	212833
#	221506
#	233657
#	244103
#	255544
#
# Disc length: 3558 seconds
#
# Revision: 0
# Processed by: cddbd v1.5.2PL0 Copyright (c) Steve Scherf et al.
# Submitted via: CDex 1.51
#
DISCID=0a0de414
DTITLE=Mel Tormé - At the Crescendo (Complete Recordings 1954 and 1957) [CD2]
DYEAR=2008
DGENRE=Jazz
TTITLE0=It's Only A Paper Moon
TTITLE1=What Is This Thing Called Love?
TTITLE2=One For My Baby
TTITLE3=Love Is Just A Bug
TTITLE4=A Nightingale Sang In Berkeley Square
TTITLE5=Autumn Leaves
TTITLE6=Just One Of Those Things
TTITLE7=The Girl Next Door
TTITLE8=Lover Come Back To Me
TTITLE9=Looking At You
TTITLE10=The Tender Trap
TTITLE11=I'm Beginning To See The Light
TTITLE12=It's All Right With Me
TTITLE13=Manhattan
TTITLE14=Taking A Chance On Love
TTITLE15=Home By The Sea
TTITLE16=It's De-Lovely
TTITLE17=Tenderly
TTITLE18=I Wish I Was In Love Again
TTITLE19=Nobody's Heart
EXTD=YEAR: 2008
EXTT0=
EXTT1=
EXTT2=
EXTT3=
EXTT4=
EXTT5=
EXTT6=
EXTT7=
EXTT8=
EXTT9=
EXTT10=
EXTT11=
EXTT12=
EXTT13=
EXTT14=
EXTT15=
EXTT16=
EXTT17=
EXTT18=
EXTT19=
PLAYORDER=
